<svg xmlns="http://www.w3.org/2000/svg" fill="none" viewBox="0 0 64 64" height="64" width="64">
<path fill="white" d="M0 0V64H64V0H0ZM61.0513 61.0513H2.9498V2.9498H61.0513V61.0513Z"></path>
<path fill="white" d="M48.9324 8.2793H15.076C11.336 8.2793 8.30469 11.3106 8.30469 15.0506C8.30469 18.7905 11.336 21.8219 15.076 21.8219H48.9324C52.6723 21.8219 55.7036 18.7905 55.7036 15.0506C55.7036 11.3106 52.6723 8.2793 48.9324 8.2793Z"></path>
<path fill="white" d="M8.89453 32.4568C8.89453 28.7169 11.7606 25.6856 15.8125 25.6856L45.5388 25.6758C49.2787 25.6758 52.3101 28.7071 52.3101 32.4471C52.3101 36.187 49.2787 39.2183 45.5388 39.2183H23.6968C23.0012 39.2183 22.4371 39.7824 22.4371 40.478V50.4056C22.4371 54.1456 19.471 57.1769 15.8125 57.1769C11.8639 57.1769 8.89453 54.1456 8.89453 50.4056V32.4568Z"></path>
</svg>
